<svg width="41" height="41" viewBox="0 0 41 41" fill="none" xmlns="http://www.w3.org/2000/svg">
<g id="Frame">
<path id="Vector" d="M23.9166 20.5C23.9166 22.387 22.387 23.9167 20.5 23.9167C18.613 23.9167 17.0833 22.387 17.0833 20.5C17.0833 18.613 18.613 17.0833 20.5 17.0833C22.387 17.0833 23.9166 18.613 23.9166 20.5Z" fill="#725BB2"/>
<path id="Vector_2" fill-rule="evenodd" clip-rule="evenodd" d="M20.5 5.125C12.3128 5.125 5.24662 9.92442 1.96139 16.8632C0.874318 19.1593 0.874317 21.8407 1.96138 24.1368C5.24661 31.0756 12.3128 35.875 20.5 35.875C28.6871 35.875 35.7533 31.0756 39.0385 24.1367C40.1256 21.8407 40.1256 19.1593 39.0385 16.8633C35.7533 9.92445 28.6871 5.125 20.5 5.125ZM27.3333 20.5C27.3333 24.2739 24.2739 27.3333 20.5 27.3333C16.726 27.3333 13.6666 24.2739 13.6666 20.5C13.6666 16.7261 16.726 13.6667 20.5 13.6667C24.2739 13.6667 27.3333 16.7261 27.3333 20.5Z" fill="#725BB2"/>
</g>
</svg>
