<svg width="50" height="33" viewBox="0 0 50 33" fill="none" xmlns="http://www.w3.org/2000/svg">
<path d="M5.09979 7.40118L1 11.501L21.4989 32L41.998 11.5011L37.8983 7.40127L21.4989 23.8005L5.09979 7.40118Z" fill="white"/>
<path d="M5.33553 7.16545L5.09979 6.9297L4.86405 7.16545L0.764261 11.2653L0.528524 11.501L0.764261 11.7367L21.2632 32.2357L21.4989 32.4715L21.7347 32.2357L42.2338 11.7368L42.4695 11.5011L42.2338 11.2654L38.134 7.16553L37.8983 6.92979L37.6625 7.16553L21.4989 23.329L5.33553 7.16545Z" stroke="#7B7B7B" stroke-opacity="0.5" stroke-width="0.66677"/>
<path d="M41.0759 20.8484L43.945 20.4017L41.7117 6.05614L27.3661 8.28943L27.8127 11.1585L39.2892 9.3719L41.0759 20.8484Z" fill="white"/>
<path d="M40.9109 20.8741L40.9366 21.039L41.1016 21.0133L43.9707 20.5667L44.1357 20.541L44.11 20.376L41.8766 6.03045L41.8509 5.86548L41.686 5.89116L27.3404 8.12445L27.1754 8.15014L27.2011 8.31511L27.6477 11.1842L27.6734 11.3492L27.8384 11.3235L39.1499 9.56255L40.9109 20.8741Z" stroke="#7B7B7B" stroke-opacity="0.5" stroke-width="0.333923"/>
</svg>
