<svg width="39" height="39" viewBox="0 0 39 39" fill="none" xmlns="http://www.w3.org/2000/svg">
<path d="M37.5049 21.4177L17.5679 15.2971C17.2199 15.1938 16.8503 15.1875 16.4989 15.2788C16.1476 15.3702 15.8278 15.5557 15.5742 15.8154C15.3214 16.0733 15.1433 16.3949 15.059 16.7461C14.9748 17.0972 14.9874 17.4646 15.0957 17.8091L21.4955 37.5069C21.6209 37.8811 21.8545 38.2098 22.1669 38.4511C22.4792 38.6925 22.8561 38.8357 23.2499 38.8626H23.4094C23.7797 38.8596 24.1418 38.7536 24.4552 38.5564C24.7686 38.3592 25.0209 38.0786 25.1838 37.7461L29.3706 29.2928L37.9036 25.1061C38.2594 24.9267 38.5533 24.6449 38.7474 24.297C38.9415 23.949 39.0269 23.5509 38.9926 23.1539C38.9583 22.757 38.8058 22.3794 38.5548 22.0699C38.3038 21.7605 37.9659 21.5333 37.5846 21.4177H37.5049ZM8.55638 5.72733C8.18096 5.35191 7.67178 5.141 7.14086 5.141C6.60993 5.141 6.10075 5.35191 5.72533 5.72733C5.34991 6.10275 5.139 6.61193 5.139 7.14286C5.139 7.67378 5.34991 8.18296 5.72533 8.55838L11.2279 14.041C11.4142 14.2258 11.6352 14.372 11.8781 14.4712C12.121 14.5704 12.3811 14.6207 12.6435 14.6192C13.1457 14.6017 13.6228 14.3952 13.9792 14.041C14.1661 13.8557 14.3144 13.6352 14.4156 13.3923C14.5169 13.1493 14.569 12.8887 14.569 12.6255C14.569 12.3623 14.5169 12.1017 14.4156 11.8588C14.3144 11.6158 14.1661 11.3953 13.9792 11.21L8.55638 5.72733ZM9.61304 20.4807C10.0909 20.4868 10.5551 20.3211 10.921 20.0137C11.287 19.7064 11.5303 19.2777 11.6067 18.806C11.6937 18.2882 11.5729 17.757 11.2705 17.3277C10.9682 16.8984 10.5087 16.6057 9.99185 16.5132L2.23636 15.2971C1.72221 15.234 1.2037 15.3736 0.790636 15.6862C0.377573 15.9988 0.102391 16.4598 0.0233604 16.9718C-0.0570291 17.4924 0.0718858 18.0236 0.381942 18.4495C0.691999 18.8754 1.15799 19.1612 1.67813 19.2446L9.35386 20.4608L9.61304 20.4807ZM9.71273 23.232L2.7946 26.7409C2.39726 26.9444 2.07974 27.2755 1.89289 27.6809C1.70605 28.0864 1.66069 28.5428 1.7641 28.9771C1.8675 29.4114 2.11368 29.7984 2.46319 30.0762C2.81271 30.3539 3.24533 30.5063 3.69176 30.509C4.00473 30.5145 4.3138 30.4389 4.58893 30.2897L11.527 26.7808C11.768 26.6664 11.9836 26.5048 12.1611 26.3056C12.3385 26.1064 12.4742 25.8736 12.56 25.621C12.6459 25.3684 12.6802 25.1012 12.6608 24.8351C12.6415 24.569 12.569 24.3095 12.4475 24.072C12.3261 23.8345 12.1582 23.6237 11.9539 23.4522C11.7495 23.2808 11.5128 23.152 11.2578 23.0737C11.0027 22.9954 10.7346 22.969 10.4692 22.9962C10.2038 23.0234 9.94657 23.1036 9.71273 23.232ZM24.167 12.486C24.4525 12.6266 24.7659 12.7015 25.0841 12.7053C25.4523 12.7042 25.813 12.6011 26.1262 12.4076C26.4394 12.214 26.6928 11.9375 26.8585 11.6087L30.3874 4.71055C30.5139 4.4746 30.5916 4.21559 30.6159 3.94896C30.6401 3.68233 30.6105 3.41355 30.5286 3.15864C30.4467 2.90373 30.3144 2.66792 30.1394 2.46528C29.9644 2.26264 29.7504 2.09732 29.5101 1.97918C29.0417 1.74123 28.4983 1.69781 27.998 1.85834C27.4978 2.01887 27.0811 2.37039 26.8386 2.83647L23.3097 9.79447C23.1888 10.0274 23.1151 10.2819 23.0927 10.5434C23.0704 10.8049 23.0999 11.0682 23.1795 11.3182C23.2591 11.5683 23.3874 11.8002 23.5568 12.0006C23.7263 12.2009 23.9337 12.3659 24.167 12.486ZM18.5448 11.6486H18.8638C19.1233 11.6074 19.3721 11.5153 19.596 11.3777C19.8198 11.24 20.0142 11.0594 20.1679 10.8463C20.3217 10.6333 20.4319 10.3919 20.492 10.1361C20.5522 9.88031 20.5612 9.61514 20.5186 9.35586L19.3024 1.70006C19.2605 1.43825 19.1675 1.18725 19.0286 0.96139C18.8897 0.735535 18.7077 0.539248 18.4929 0.383737C18.2782 0.228227 18.0349 0.116537 17.777 0.0550465C17.519 -0.00644432 17.2515 -0.0165325 16.9897 0.0253581C16.7279 0.0672486 16.4769 0.160298 16.251 0.299192C16.0252 0.438087 15.8289 0.620107 15.6734 0.83486C15.5179 1.04961 15.4062 1.29289 15.3447 1.55081C15.2832 1.80873 15.2731 2.07623 15.315 2.33805L16.571 9.95397C16.6427 10.426 16.8812 10.8566 17.2434 11.1676C17.6056 11.4785 18.0674 11.6492 18.5448 11.6486Z" fill="white"/>
</svg>
