<svg version="1.1" id="Layer_1" xmlns="http://www.w3.org/2000/svg" xmlns:xlink="http://www.w3.org/1999/xlink" x="0px" y="0px"
	 width="100%" viewBox="0 0 150 150" enable-background="new 0 0 150 150" xml:space="preserve">
<path fill="#725BB2" opacity="1.000000" stroke="none" 
	d="
M1.000000,65.000000 
	C1.000000,45.979103 1.000000,26.958210 1.271143,7.770403 
	C3.361524,5.402327 5.180762,3.201164 7.000000,1.000000 
	C26.020895,1.000000 45.041790,1.000000 64.249130,1.295174 
	C70.419739,5.448012 72.370079,10.881317 72.127296,17.967304 
	C71.683296,30.926260 72.008224,43.911312 71.998337,56.885475 
	C71.991158,66.309944 66.405403,71.985588 57.115921,71.996475 
	C44.973446,72.010704 32.828129,71.841965 20.689495,72.058289 
	C13.211961,72.191536 6.106662,71.976524 1.739309,64.539345 
	C1.492873,64.692894 1.246437,64.846451 1.000000,65.000000 
z"/>
<path fill="#C3B6E5" opacity="1.000000" stroke="none" 
	d="
M151.000000,7.000000 
	C151.000000,26.020895 151.000000,45.041790 150.739105,64.208244 
	C146.542053,70.500015 140.960190,72.393051 133.734909,72.132492 
	C120.759933,71.664574 107.755966,72.007637 94.764130,71.997818 
	C85.906670,71.991127 80.013138,66.173515 80.003990,57.416527 
	C79.990417,44.424698 80.128906,31.431046 79.947517,18.441732 
	C79.853775,11.729923 80.708038,5.694088 87.250702,2.037646 
	C87.334320,1.990915 87.090813,1.358853 87.000000,1.000000 
	C106.020897,1.000000 125.041786,1.000000 144.208511,1.250138 
	C146.569565,3.333517 148.784775,5.166759 151.000000,7.000000 
z"/>
<path fill="#725BB2" opacity="1.000000" stroke="none" 
	d="
M151.000000,87.000000 
	C151.000000,106.020897 151.000000,125.041786 150.728577,144.229584 
	C148.638092,146.597672 146.819046,148.798828 145.000000,151.000000 
	C125.979103,151.000000 106.958214,151.000000 87.751366,150.705292 
	C81.584686,146.545807 79.635071,141.105362 79.875565,134.020966 
	C80.315521,121.060760 79.994156,108.074921 80.002922,95.099785 
	C80.009277,85.695923 85.605705,80.014290 94.886482,80.003479 
	C107.029869,79.989334 119.176018,80.155670 131.315689,79.942543 
	C138.788467,79.811356 145.901596,80.005173 150.259689,87.459435 
	C150.506454,87.306290 150.753235,87.153145 151.000000,87.000000 
z"/>
<path fill="#725BB2" opacity="1.000000" stroke="none" 
	d="
M65.000000,151.000000 
	C45.979103,151.000000 26.958210,151.000000 7.770938,150.729111 
	C5.403042,148.638809 3.201522,146.819412 1.000001,145.000000 
	C1.000000,125.979103 1.000000,106.958214 1.295034,87.751083 
	C5.446506,81.590462 10.863719,79.617302 17.953865,79.872429 
	C30.570234,80.326401 43.214687,79.998932 55.847393,80.000336 
	C66.651657,80.001541 71.999641,85.439110 72.000687,96.423134 
	C72.001793,108.058525 71.839828,119.696945 72.058884,131.328217 
	C72.199646,138.801910 71.971764,145.899338 64.539536,150.260864 
	C64.693024,150.507248 64.846512,150.753616 65.000000,151.000000 
z"/>
<path fill="#000000" opacity="1.000000" stroke="none" 
	d="
M65.468582,151.000000 
	C64.846512,150.753616 64.693024,150.507248 64.539536,150.260864 
	C71.971764,145.899338 72.199646,138.801910 72.058884,131.328217 
	C71.839828,119.696945 72.001793,108.058525 72.000687,96.423134 
	C71.999641,85.439110 66.651657,80.001541 55.847393,80.000336 
	C43.214687,79.998932 30.570234,80.326401 17.953865,79.872429 
	C10.863719,79.617302 5.446506,81.590462 1.295034,87.282425 
	C1.000000,79.979050 1.000000,72.958107 1.000000,65.468582 
	C1.246437,64.846451 1.492873,64.692894 1.739309,64.539345 
	C6.106662,71.976524 13.211961,72.191536 20.689495,72.058289 
	C32.828129,71.841965 44.973446,72.010704 57.115921,71.996475 
	C66.405403,71.985588 71.991158,66.309944 71.998337,56.885475 
	C72.008224,43.911312 71.683296,30.926260 72.127296,17.967304 
	C72.370079,10.881317 70.419739,5.448012 64.717789,1.295174 
	C72.020950,1.000000 79.041893,1.000000 86.531418,1.000000 
	C87.090813,1.358853 87.334320,1.990915 87.250702,2.037646 
	C80.708038,5.694088 79.853775,11.729923 79.947517,18.441732 
	C80.128906,31.431046 79.990417,44.424698 80.003990,57.416527 
	C80.013138,66.173515 85.906670,71.991127 94.764130,71.997818 
	C107.755966,72.007637 120.759933,71.664574 133.734909,72.132492 
	C140.960190,72.393051 146.542053,70.500015 150.739105,64.676903 
	C151.000000,72.020950 151.000000,79.041893 151.000000,86.531418 
	C150.753235,87.153145 150.506454,87.306290 150.259689,87.459435 
	C145.901596,80.005173 138.788467,79.811356 131.315689,79.942543 
	C119.176018,80.155670 107.029869,79.989334 94.886482,80.003479 
	C85.605705,80.014290 80.009277,85.695923 80.002922,95.099785 
	C79.994156,108.074921 80.315521,121.060760 79.875565,134.020966 
	C79.635071,141.105362 81.584686,146.545807 87.282707,150.705292 
	C79.979050,151.000000 72.958107,151.000000 65.468582,151.000000 
z"/>
<path fill="#000000" opacity="1.000000" stroke="none" 
	d="
M6.500528,1.000000 
	C5.180762,3.201164 3.361524,5.402327 1.271143,7.301745 
	C1.000000,5.086773 1.000000,3.173546 1.000000,1.000000 
	C2.663430,1.000000 4.332244,1.000000 6.500528,1.000000 
z"/>
<path fill="#000000" opacity="1.000000" stroke="none" 
	d="
M151.000000,6.500528 
	C148.784775,5.166759 146.569565,3.333517 144.677170,1.250138 
	C146.913223,1.000000 148.826462,1.000000 151.000000,1.000000 
	C151.000000,2.663430 151.000000,4.332244 151.000000,6.500528 
z"/>
<path fill="#000000" opacity="1.000000" stroke="none" 
	d="
M1.000001,145.499481 
	C3.201522,146.819412 5.403042,148.638809 7.302281,150.729111 
	C5.086773,151.000000 3.173547,151.000000 1.000000,151.000000 
	C1.000000,149.336578 1.000000,147.667755 1.000001,145.499481 
z"/>
<path fill="#000000" opacity="1.000000" stroke="none" 
	d="
M145.499481,151.000000 
	C146.819046,148.798828 148.638092,146.597672 150.728577,144.698242 
	C151.000000,146.913223 151.000000,148.826462 151.000000,151.000000 
	C149.336578,151.000000 147.667755,151.000000 145.499481,151.000000 
z"/>
</svg>