<svg width="34" height="34" viewBox="0 0 34 34" fill="none" xmlns="http://www.w3.org/2000/svg">
<g id="Icon">
<path id="Vector" fill-rule="evenodd" clip-rule="evenodd" d="M21 18C19.3431 18 18 19.3431 18 21V31C18 32.6569 19.3431 34 21 34H31C32.6569 34 34 32.6569 34 31V21C34 19.3431 32.6569 18 31 18H21Z" fill="#725BB2"/>
<path id="Vector_2" fill-rule="evenodd" clip-rule="evenodd" d="M3 18C1.34315 18 0 19.3431 0 21V31C0 32.6569 1.34315 34 3 34H13C14.6569 34 16 32.6569 16 31V21C16 19.3431 14.6569 18 13 18H3Z" fill="#725BB2"/>
<path id="Vector_3" fill-rule="evenodd" clip-rule="evenodd" d="M21 0C19.3431 0 18 1.34315 18 3V13C18 14.6569 19.3431 16 21 16H31C32.6569 16 34 14.6569 34 13V3C34 1.34315 32.6569 0 31 0H21Z" fill="#C3B6E6"/>
<path id="Vector_4" fill-rule="evenodd" clip-rule="evenodd" d="M3 0C1.34315 0 0 1.34315 0 3V13C0 14.6569 1.34315 16 3 16H13C14.6569 16 16 14.6569 16 13V3C16 1.34315 14.6569 0 13 0H3Z" fill="#725BB2"/>
</g>
</svg>
