<svg width="29" height="49" viewBox="0 0 29 49" fill="none" xmlns="http://www.w3.org/2000/svg">
<path fill-rule="evenodd" clip-rule="evenodd" d="M12.0833 41.0833V48.3333H16.9167V41.0833H19.3333C24.672 41.0833 29 36.7553 29 31.4167C29 26.078 24.672 21.75 19.3333 21.75H16.9167V12.0833H21.75V16.9167H26.5833V7.25H16.9167V0H12.0833V7.25H9.66667C4.32791 7.25 0 11.5779 0 16.9167C0 22.2553 4.32791 26.5833 9.66667 26.5833H12.0833V36.25H7.25V31.4167H2.41667V41.0833H12.0833ZM16.9167 36.25H19.3333C22.0028 36.25 24.1667 34.0861 24.1667 31.4167C24.1667 28.7472 22.0028 26.5833 19.3333 26.5833H16.9167V36.25ZM12.0833 21.75V12.0833H9.66667C6.99729 12.0833 4.83333 14.2473 4.83333 16.9167C4.83333 19.5861 6.99729 21.75 9.66667 21.75H12.0833Z" fill="white"/>
</svg>
