<svg width="40" height="40" viewBox="0 0 40 40" fill="none" xmlns="http://www.w3.org/2000/svg">
<g id="Frame">
<g id="Vector">
<path fill-rule="evenodd" clip-rule="evenodd" d="M33.3333 26.6667H30V23.3333H9.99998V26.6667H6.66665V13.3333H33.3333V26.6667ZM9.99998 16.6667H13.3333V20H9.99998V16.6667Z" fill="#6E6E6E"/>
<path d="M13.3333 6.66666H26.6666V10H13.3333V6.66666Z" fill="#6E6E6E"/>
<path d="M13.3333 26.6667H26.6666V33.3333H13.3333V26.6667Z" fill="#FFFAFA"/>
<path fill-rule="evenodd" clip-rule="evenodd" d="M26.6666 6.66666H13.3333V10H26.6666V6.66666ZM36.6666 10H30V3.33333H9.99998V10H3.33331V30H9.99998V36.6667H30V30H36.6666V10ZM30 26.6667H33.3333V13.3333H6.66665V26.6667H9.99998V23.3333H30V26.6667ZM26.6666 26.6667H13.3333V33.3333H26.6666V26.6667Z" fill="#6E6E6E"/>
</g>
</g>
</svg>
