<svg width="82" height="62" viewBox="0 0 82 62" fill="none" xmlns="http://www.w3.org/2000/svg">
<path d="M68.4142 31L67 32.4142L74.071 39.4853L81.1421 32.4142L79.7279 31L74.071 36.6569L68.4142 31Z" fill="#414141"/>
<path fill-rule="evenodd" clip-rule="evenodd" d="M42 22.75C42 28.825 37.075 33.75 31 33.75C24.9249 33.75 20 28.825 20 22.75C20 16.6749 24.9249 11.75 31 11.75C37.075 11.75 42 16.6749 42 22.75ZM36.5 22.75C36.5 25.7877 34.0377 28.25 31 28.25C27.9623 28.25 25.5 25.7877 25.5 22.75C25.5 19.7124 27.9623 17.25 31 17.25C34.0377 17.25 36.5 19.7124 36.5 22.75Z" fill="#414141"/>
<path d="M36.5 22.75C36.5 25.7877 34.0377 28.25 31 28.25C27.9623 28.25 25.5 25.7877 25.5 22.75C25.5 19.7124 27.9623 17.25 31 17.25C34.0377 17.25 36.5 19.7124 36.5 22.75Z" fill="#414141"/>
<path fill-rule="evenodd" clip-rule="evenodd" d="M31 0.75C14.2934 0.75 0.75 14.2934 0.75 31C0.75 47.7065 14.2934 61.25 31 61.25C47.7065 61.25 61.25 47.7065 61.25 31C61.25 14.2934 47.7065 0.75 31 0.75ZM6.25 31C6.25 36.7481 8.20951 42.0385 11.4969 46.2397C16.0192 40.3195 23.1522 36.5 31.1774 36.5C39.0982 36.5 46.1503 40.221 50.6804 46.0103C53.8607 41.8468 55.75 36.6441 55.75 31C55.75 17.331 44.6692 6.25 31 6.25C17.331 6.25 6.25 17.331 6.25 31ZM31 55.75C25.0869 55.75 19.658 53.6762 15.4011 50.2165C18.8822 45.2483 24.6504 42 31.1774 42C37.6231 42 43.3291 45.1683 46.8229 50.0325C42.5332 53.6025 37.0173 55.75 31 55.75Z" fill="#414141"/>
<path d="M31 55.75C25.0869 55.75 19.658 53.6762 15.4011 50.2165C18.8822 45.2483 24.6504 42 31.1774 42C37.6231 42 43.3291 45.1683 46.8229 50.0325C42.5332 53.6025 37.0173 55.75 31 55.75Z" fill="#414141"/>
</svg>
