<svg width="38" height="40" viewBox="0 0 38 40" fill="none" xmlns="http://www.w3.org/2000/svg">
<path id="Vector" d="M33.5044 21.432C33.5825 20.8071 33.6411 20.1724 33.6411 19.528C33.6411 18.8836 33.5825 18.2489 33.5044 17.624L37.6346 14.3921C38.0056 14.0992 38.113 13.572 37.8689 13.1423L33.9633 6.37589C33.7192 5.95604 33.2115 5.78029 32.7721 5.95604L27.9096 7.9186C26.904 7.14724 25.8006 6.49306 24.6094 5.99509L23.8771 0.820176C23.7892 0.361268 23.3889 0 22.9007 0H15.0895C14.6013 0 14.201 0.361268 14.1229 0.820176L13.3906 5.99509C12.2102 6.4874 11.1005 7.13422 10.0904 7.9186L5.22788 5.95604C5.01177 5.87358 4.77341 5.87053 4.55525 5.94742C4.3371 6.02431 4.15333 6.17615 4.03668 6.37589L0.131077 13.1423C-0.113023 13.5622 -0.00561908 14.0894 0.365413 14.3921L4.48582 17.624C4.40771 18.2489 4.34912 18.8836 4.34912 19.528C4.34912 20.1724 4.40771 20.8071 4.48582 21.432L0.365413 24.6639C-0.00561908 24.9568 -0.113023 25.484 0.131077 25.9136L4.03668 32.6801C4.28078 33.0999 4.7885 33.2757 5.22788 33.0999L10.0904 31.1374C11.096 31.9087 12.1994 32.5629 13.3906 33.0609L14.1229 38.2358C14.201 38.6947 14.6013 39.056 15.0895 39.056H22.9007C23.3889 39.056 23.7892 38.6947 23.8673 38.2358L24.5996 33.0609C25.78 32.5686 26.8898 31.9218 27.8999 31.1374L32.7624 33.0999C32.9785 33.1824 33.2168 33.1855 33.435 33.1086C33.6531 33.0317 33.8369 32.8798 33.9536 32.6801L37.8592 25.9136C38.1033 25.4938 37.9959 24.9665 37.6248 24.6639L33.5044 21.432ZM18.9951 26.3628C15.2165 26.3628 12.1603 23.3067 12.1603 19.528C12.1603 15.7493 15.2165 12.6932 18.9951 12.6932C22.7738 12.6932 25.8299 15.7493 25.8299 19.528C25.8299 23.3067 22.7738 26.3628 18.9951 26.3628Z" fill="#414141"/>
</svg>
