<svg width="42" height="42" viewBox="0 0 42 42" fill="none" xmlns="http://www.w3.org/2000/svg">
<g id="Frame">
<g id="Vector">
<path fill-rule="evenodd" clip-rule="evenodd" d="M39.8562 14C40.1173 15.1456 40.25 16.3195 40.25 17.5H24.5V1.75C25.6805 1.75 26.8544 1.88272 28 2.14382C28.8615 2.34017 29.707 2.60915 30.5274 2.94889C32.4382 3.74042 34.1744 4.90054 35.637 6.36307C37.0995 7.8256 38.2595 9.56186 39.0511 11.4727C39.3909 12.293 39.6599 13.1385 39.8562 14ZM36.2394 14C36.1195 13.5978 35.9788 13.2013 35.8176 12.8121C35.2019 11.3259 34.2996 9.97545 33.162 8.83794C32.0245 7.70042 30.6742 6.7981 29.1879 6.18247C28.7987 6.02128 28.4021 5.88054 28 5.76065V14H36.2394Z" fill="black" fill-opacity="0.37"/>
<path d="M36.2394 14C36.1195 13.5978 35.9788 13.2013 35.8176 12.8121C35.2019 11.3259 34.2996 9.97545 33.162 8.83794C32.0245 7.70042 30.6742 6.7981 29.1879 6.18247C28.7987 6.02128 28.4021 5.88054 28 5.76065V14H36.2394Z" fill="black" fill-opacity="0.37"/>
</g>
<g id="Vector_2">
<path fill-rule="evenodd" clip-rule="evenodd" d="M1.75 24.5C1.75 15.8015 8.80152 8.75 17.5 8.75C18.6805 8.75 19.8544 8.88272 21 9.14382V21H32.8562C33.1173 22.1455 33.25 23.3194 33.25 24.5C33.25 33.1985 26.1985 40.25 17.5 40.25C8.80152 40.25 1.75 33.1985 1.75 24.5ZM29.4061 24.5H17.5V12.5938C10.9244 12.5938 5.59384 17.9244 5.59384 24.5C5.59384 31.0756 10.9244 36.4061 17.5 36.4061C24.0756 36.4061 29.4061 31.0756 29.4061 24.5Z" fill="black" fill-opacity="0.57"/>
<path d="M29.4061 24.5H17.5V12.5938C10.9244 12.5938 5.59384 17.9244 5.59384 24.5C5.59384 31.0756 10.9244 36.4061 17.5 36.4061C24.0756 36.4061 29.4061 31.0756 29.4061 24.5Z" fill="black" fill-opacity="0.57"/>
</g>
</g>
</svg>
